<svg width="25" height="24" viewBox="0 0 25 24" fill="none" xmlns="http://www.w3.org/2000/svg">
<path d="M12.5 4.86429C8.60536 4.86429 5.43929 8.03036 5.43393 11.925C5.43393 13.2589 5.80893 14.5607 6.51607 15.6804L6.68214 15.9482L5.96964 18.5518L8.64286 17.85L8.9 18.0054C9.98214 18.6482 11.225 18.9911 12.4946 18.9911H12.5C16.3893 18.9911 19.6411 15.825 19.6411 11.9304C19.6411 10.0446 18.8268 8.27143 17.4929 6.9375C16.1536 5.59821 14.3857 4.86429 12.5 4.86429ZM16.6518 14.9571C16.475 15.4554 15.6286 15.9054 15.2214 15.9643C14.5464 16.0661 14.0214 16.0125 12.6768 15.4339C10.55 14.5125 9.15714 12.3696 9.05 12.2304C8.94286 12.0911 8.18214 11.0786 8.18214 10.0339C8.18214 8.98929 8.72857 8.475 8.92679 8.26071C9.11964 8.04643 9.35 7.99286 9.49464 7.99286C9.63393 7.99286 9.77857 7.99286 9.90179 7.99821C10.0304 8.00357 10.2071 7.95 10.3786 8.3625C10.5554 8.78572 10.9786 9.83036 11.0321 9.9375C11.0857 10.0446 11.1232 10.1679 11.0482 10.3071C10.6411 11.1214 10.2071 11.0893 10.4268 11.4643C11.2464 12.8732 12.0661 13.3607 13.3143 13.9875C13.5286 14.0946 13.6518 14.0786 13.775 13.9339C13.8982 13.7946 14.3054 13.3125 14.4446 13.1036C14.5839 12.8893 14.7286 12.9268 14.9214 12.9964C15.1143 13.0661 16.1589 13.5804 16.3732 13.6875C16.5875 13.7946 16.7268 13.8482 16.7804 13.9339C16.8286 14.0357 16.8286 14.4643 16.6518 14.9571ZM21.9286 0H3.07143C1.65179 0 0.5 1.15179 0.5 2.57143V21.4286C0.5 22.8482 1.65179 24 3.07143 24H21.9286C23.3482 24 24.5 22.8482 24.5 21.4286V2.57143C24.5 1.15179 23.3482 0 21.9286 0ZM12.4946 20.4214C11.0696 20.4214 9.67143 20.0625 8.43393 19.3875L3.92857 20.5714L5.13393 16.1679C4.38929 14.8821 3.99821 13.4196 3.99821 11.9196C4.00357 7.2375 7.8125 3.42857 12.4946 3.42857C14.7661 3.42857 16.8982 4.3125 18.5054 5.91964C20.1071 7.52679 21.0714 9.65893 21.0714 11.9304C21.0714 16.6125 17.1768 20.4214 12.4946 20.4214Z" fill="white"/>
</svg>
