<svg width="55" height="69" viewBox="0 0 55 69" fill="none" xmlns="http://www.w3.org/2000/svg">
<path d="M8.25 24.4442C8.25 39.2106 21.1508 43.4976 27.6011 43.7953C34.1508 43.3984 47.25 38.9724 47.25 24.4442C47.25 9.91596 34.1508 5.29153 27.6011 4.79535C21.1508 5.1923 8.25 9.67779 8.25 24.4442Z" stroke="white"/>
<path d="M27.3961 4.79535V43.7953M27.3961 4.79535C23.5983 4.79535 18.9242 10.4518 17.4635 24.1465C16.2949 35.1022 23.5983 41.8106 27.3961 43.7953M27.3961 4.79535C30.7069 5.39077 37.2702 10.0946 37.0365 24.1465C36.8028 38.1984 30.5122 43.1007 27.3961 43.7953M40.25 39.032C36.2575 34.9633 25.468 29.2671 14.25 39.032" stroke="white"/>
<path d="M14.25 9.79535C18.5833 13.5685 29.85 18.8508 40.25 9.79535" stroke="white"/>
<path d="M8.25 24.7953H47.25" stroke="white" stroke-width="2"/>
<path d="M39.5417 59.9307H15.4583C14.8681 61.3215 12.7667 64.179 9.08333 64.4825C5.4 64.786 2.82639 61.0687 2 59.1721H6.06542C6.18316 59.1721 6.29562 59.1232 6.37597 59.0372C7.9003 57.4046 7.9003 54.8705 6.37597 53.238C6.29562 53.1519 6.18316 53.1031 6.06542 53.1031H2C5.11667 48.8547 8.02083 48.2984 9.08333 48.5513C11.9167 48.2478 14.5139 50.9536 15.4583 52.3444H39.5417C42.375 49.0065 45.4444 48.4248 46.625 48.5513C49.4583 48.2478 52.0556 51.4594 53 53.1031H49.3118C49.1794 53.1031 49.0528 53.158 48.9625 53.2548C47.2476 55.0915 47.2476 57.9423 48.9625 59.7789C49.0528 59.8758 49.1794 59.9307 49.3118 59.9307H53C51.9375 61.448 49.0333 64.4825 45.9167 64.4825C42.8 64.4825 40.3681 61.448 39.5417 59.9307Z" stroke="white"/>
</svg>
