<svg width="28" height="28" viewBox="0 0 28 28" fill="none" xmlns="http://www.w3.org/2000/svg">
<path d="M26.1225 4.92559L22.5863 1.39277C22.1547 0.961133 21.577 0.71875 20.966 0.71875C20.3551 0.71875 19.7773 0.957813 19.3457 1.39277L15.5373 5.19453C15.1057 5.62617 14.8633 6.20723 14.8633 6.81816C14.8633 7.43242 15.1023 8.00684 15.5373 8.4418L18.5123 11.4201C17.8346 12.9992 16.8608 14.434 15.6436 15.6469C14.425 16.8721 13.0006 17.8383 11.4201 18.5223L8.44512 15.5439C8.01348 15.1123 7.43574 14.8699 6.8248 14.8699C6.52346 14.8688 6.22493 14.9278 5.9467 15.0436C5.66847 15.1593 5.41614 15.3294 5.20449 15.5439L1.39277 19.3457C0.961133 19.7773 0.71875 20.3584 0.71875 20.9693C0.71875 21.5836 0.957813 22.158 1.39277 22.593L4.92559 26.1258C5.6627 26.8629 6.67871 27.2846 7.72129 27.2846C7.93711 27.2846 8.14629 27.268 8.35879 27.2314C12.7549 26.5076 17.1178 24.1668 20.6406 20.6473C24.1602 17.1211 26.4977 12.7582 27.2281 8.35879C27.4373 7.11035 27.0189 5.82539 26.1225 4.92559ZM24.874 7.96367C24.2266 11.8783 22.1215 15.783 18.9506 18.9539C15.7797 22.1248 11.8783 24.2299 7.96367 24.8773C7.47227 24.9603 6.96758 24.7943 6.60898 24.4391L3.13926 20.9693L6.81816 17.2871L10.7959 21.2715L10.8258 21.3014L11.543 21.0357C13.7175 20.2362 15.6922 18.9734 17.3302 17.3349C18.9682 15.6963 20.2304 13.7211 21.0291 11.5463L21.2947 10.8291L17.2838 6.82148L20.9627 3.13926L24.4324 6.60898C24.791 6.96758 24.957 7.47227 24.874 7.96367Z" fill="white"/>
</svg>
